<svg xmlns="http://www.w3.org/2000/svg" viewBox="0 0 200 200" xml:space="preserve">
  <style type="text/css">
    .st0 {
      opacity: 0.2;
      fill: #EE3A68;
      enable-background: new;
    }

    .st1 {
      fill: #EE3A68;
    }

    .st2 {
      opacity: 0.1;
    }

    .st3 {
      fill: #010101;
    }
  </style>
  <g>
    <g>
      <polygon class="st0" points="100.08,173.15 108.98,160.45 104.28,160.45 118.98,135.05 113.78,135.05 130.98,105.25 
			116.28,120.45 100.18,114.95 83.68,120.35 68.98,105.05 86.48,135.05 81.18,135.05 95.88,160.45 91.18,160.45" />
      <polygon class="st0" points="68.98,105.05 83.68,120.35 100.18,114.95 116.28,120.35 130.98,105.15 116.28,122.25 100.08,119.75 83.88,122.15" />
    </g>
    <g>
      <g>
        <g>
          <path class="st1" d="M146.28,99.15l-17.8-26.8h4.7l-14.7-24.3h5.3l-23.7-41l-23.7,41h5.3l-14.7,24.3h4.7l-17.8,26.8h37.7l-0.6-5.8h18.2l-0.6,5.8H146.28z M99.08,81.25l-0.5-11.7l-3-2.9l2.9-10.7l2.7,2l-2.4,7.4l3.2,3.6L99.08,81.25z" />
          <polygon class="st1" points="183.58,185.45 165.78,160.45 170.48,160.45 155.78,135.05 161.08,135.05 137.38,94.05 113.78,135.05 118.98,135.05 104.28,160.45 108.98,160.45 91.18,185.45 119.48,185.45 132.38,166.85 135.68,166.85 121.78,185.45 128.88,185.45 128.28,188.35 146.48,188.35 145.88,185.45" />
          <g>
            <polygon class="st1" points="119.38,185.45 114.98,191.65 116.58,192.55 121.88,185.45" />
          </g>
          <g>
            <polygon class="st1" points="108.98,185.45 91.18,160.45 95.88,160.45 81.18,135.05 86.48,135.05 62.78,94.05 39.18,135.05 44.38,135.05 29.68,160.45 34.38,160.45 16.58,185.45 54.28,185.45 53.68,188.35 71.88,188.35 71.28,185.45" />
          </g>
        </g>
        <polygon class="st1"
          points="103.88,122.55 102.68,121.35 100.08,122.65 97.48,121.35 96.28,122.55 100.08,126.35" />
        <polygon class="st1"
          points="98.18,113.65 98.78,114.25 100.08,113.55 101.48,114.25 102.08,113.65 100.08,111.65" />
        <g>
          <polygon class="st1"
            points="77.98,106.05 78.98,107.15 81.28,104.85 83.48,107.15 84.48,106.05 81.28,102.85" />
          <polygon class="st1"
            points="115.58,106.05 116.58,107.15 118.78,104.85 121.08,107.15 122.08,106.05 118.78,102.85" />
        </g>
      </g>
    </g>
    <g class="st2">
      <polygon class="st3" points="141.38,102.35 160.48,135.05 155.28,135.05 169.98,160.45 165.18,160.45 183.08,185.45 
			167.78,185.45 178.98,183.95 163.88,159.05 167.28,158.95 154.28,134.55 158.08,134.15" />
      <polygon class="st3" points="75.28,117.55 85.68,135.05 80.48,135.05 95.18,160.45 90.38,160.45 94.08,165.45 88.68,158.35 91.78,158.95 78.98,134.75 83.58,134.75" />
      <polygon class="st3" points="124.88,117.55 114.48,135.05 119.68,135.05 104.98,160.45 109.78,160.45 106.08,165.45 
			111.48,158.35 108.38,158.95 121.18,134.75 116.58,134.75" />
      <polygon class="st3" points="58.78,102.35 39.78,135.05 44.98,135.05 30.28,160.45 34.98,160.45 17.18,185.45 32.48,185.45 21.18,183.95 36.38,159.05 32.98,158.95 45.98,134.55 42.18,134.15" />
      <polygon class="st3" points="103.48,13.75 122.88,47.25 117.58,47.25 132.58,72.25 127.68,72.25 145.88,98.35 130.28,98.35 141.78,96.75 126.38,71.25 129.78,71.15 116.58,46.25 120.38,45.95" />
      <polygon class="st3" points="96.88,13.75 77.48,47.25 82.78,47.25 67.88,72.25 72.68,72.25 54.48,98.35 70.08,98.35 58.58,96.65 73.98,71.15 70.58,71.05 83.78,46.15 79.98,45.85" />
    </g>
  </g>
</svg>