<?xml version="1.0" encoding="utf-8"?>
<!-- Generator: Adobe Illustrator 27.7.0, SVG Export Plug-In . SVG Version: 6.00 Build 0)  -->
<svg version="1.1" id="Layer_1" xmlns="http://www.w3.org/2000/svg" xmlns:xlink="http://www.w3.org/1999/xlink" x="0px" y="0px"
	 viewBox="0 0 244.47 71.48" style="enable-background:new 0 0 244.47 71.48;" xml:space="preserve">
<style type="text/css">
	.st0{fill:url(#SVGID_1_);}
	.st1{fill:none;}
	.st2{opacity:0.2;fill:#1E1A53;enable-background:new    ;}
	.st3{fill:#1E1A53;}
</style>
<linearGradient id="SVGID_1_" gradientUnits="userSpaceOnUse" x1="122.2345" y1="71.48" x2="122.2345" y2="-9.094947e-13">
	<stop  offset="0" style="stop-color:#C2E8FA"/>
	<stop  offset="0.9961" style="stop-color:#9190C7"/>
</linearGradient>
<polygon class="st0" points="222.15,71.48 0,71.48 22.15,0 244.47,0 "/>
<g>
	<path class="st1" d="M130.16,8.99h-15.65l0.52,4.99H92.79l3.14,5.43l12.3,12.8l14.19-4.64l13.85,4.64l12.64-13.07l-0.67,0.77
		l0.57-0.59l3.08-5.35h-22.25L130.16,8.99z M108.06,20.86l-1.89-1.98l-1.98,1.98l-0.86-0.95l2.84-2.75l2.75,2.75L108.06,20.86z
		 M138.42,17.16l2.84,2.75l-0.86,0.95l-1.98-1.98l-1.89,1.98l-0.86-0.95L138.42,17.16z M123.54,26.97l-1.2-0.6l-1.12,0.6l-0.52-0.52
		l1.63-1.72l1.72,1.72L123.54,26.97z"/>
	<path class="st2" d="M126.55,66.71h-0.6l12.64-21.85h-3.87h-0.6l14.69-25.53l-0.57,0.59l-11.98,13.93l-13.93-2.15l-13.93,2.06
		L95.99,19.52l14.65,25.34h-0.69h-3.87l12.64,21.85h-0.6h-3.44l3.4,4.77h8.51l3.4-4.77H126.55z M122.33,37.38l-3.27-3.27l1.03-1.03
		l2.24,1.12l2.24-1.12l1.03,1.03L122.33,37.38z"/>
	<polygon class="st2" points="136.27,32.22 122.42,27.57 136.27,32.3 148.25,19.92 148.91,19.14 	"/>
	<polygon class="st2" points="122.42,27.57 108.23,32.22 95.93,19.41 95.99,19.52 108.4,33.77 122.33,31.7 136.27,33.85 
		148.25,19.92 136.27,32.3 	"/>
	<polygon class="st2" points="122.42,27.57 108.23,32.22 95.93,19.41 95.99,19.52 108.4,33.77 122.33,31.7 136.27,33.85 
		148.25,19.92 136.27,32.3 	"/>
	<polygon class="st3" points="156.95,13.98 162.07,13.98 161.62,13.29 156.56,13.29 	"/>
	<polygon class="st3" points="152.79,0 152.46,0 159.35,9.89 	"/>
	<polygon class="st3" points="88.78,12.15 90.25,9.6 92,12.63 96.53,13.29 92.39,13.29 92.79,13.98 115.02,13.98 114.51,8.99 
		130.16,8.99 129.65,13.98 151.89,13.98 152.29,13.29 148.31,13.29 152.63,12.69 154.42,9.6 155.94,12.23 158.2,11.92 151,0 
		93.79,0 86.64,11.83 	"/>
	<polygon class="st3" points="87.73,13.98 88.12,13.29 83.11,13.29 92.38,0 91.88,0 82.6,13.98 	"/>
	<polygon class="st3" points="182.46,66.71 182.89,66.71 170.24,44.86 169.81,44.86 	"/>
	<polygon class="st3" points="180.13,65.42 168.95,44.43 172.22,44.09 157.86,16.73 174.29,44.86 174.8,44.86 156.95,13.98 
		151.89,13.98 148.81,19.33 148.91,19.23 134.12,44.86 134.72,44.86 143.67,29.81 136.53,44.6 140.48,44.6 129.47,65.42 
		132.14,64.9 127.5,71.01 130.68,66.71 129.99,66.71 126.65,71.48 180.83,71.48 177.21,65.5 	"/>
	<polygon class="st3" points="178.33,66.71 181.75,71.48 182.24,71.48 178.84,66.71 	"/>
	<polygon class="st3" points="138.59,44.86 125.95,66.71 126.55,66.71 139.19,44.86 	"/>
	<polygon class="st3" points="126.59,71.48 126.65,71.48 129.99,66.71 	"/>
	<polygon class="st3" points="148.91,19.23 148.81,19.33 134.12,44.86 	"/>
	<polygon class="st3" points="152.29,13.29 151.89,13.98 156.95,13.98 156.56,13.29 	"/>
	<polygon class="st3" points="154.42,9.6 152.63,12.69 155.94,12.23 	"/>
	<polygon class="st3" points="62.3,66.71 74.94,44.86 74.43,44.86 61.78,66.71 	"/>
	<polygon class="st3" points="118.12,66.71 118.72,66.71 106.08,44.86 105.48,44.86 	"/>
	<polygon class="st3" points="65.82,66.71 62.43,71.48 62.94,71.48 66.34,66.71 	"/>
	<polygon class="st3" points="113.99,66.71 117.17,71.01 112.53,64.9 115.2,65.42 104.19,44.6 108.14,44.6 101,29.81 109.95,44.86 
		110.64,44.86 95.59,19.06 95.93,19.41 92.79,13.98 87.73,13.98 69.95,44.86 70.47,44.86 86.81,16.73 72.53,44.09 75.8,44.43 
		64.62,65.42 67.55,65.5 63.9,71.48 118.02,71.48 114.68,66.71 	"/>
	<polygon class="st3" points="110.64,44.86 95.99,19.52 95.59,19.06 	"/>
	<polygon class="st3" points="118.02,71.48 118.08,71.48 114.68,66.71 	"/>
	<polygon class="st3" points="95.59,19.06 95.99,19.52 95.93,19.41 	"/>
	<polygon class="st3" points="88.12,13.29 87.73,13.98 92.79,13.98 92.39,13.29 	"/>
	<polygon class="st3" points="90.25,9.6 88.78,12.15 92,12.63 	"/>
	<polygon class="st3" points="122.33,34.2 120.1,33.08 119.07,34.11 122.33,37.38 125.6,34.11 124.57,33.08 	"/>
	<polygon class="st3" points="120.7,26.45 121.22,26.97 122.33,26.37 123.54,26.97 124.06,26.45 122.33,24.73 	"/>
	<polygon class="st3" points="103.33,19.92 104.19,20.86 106.16,18.89 108.06,20.86 108.92,19.92 106.16,17.16 	"/>
	<polygon class="st3" points="138.42,18.89 140.4,20.86 141.26,19.92 138.42,17.16 135.67,19.92 136.53,20.86 	"/>
	<polygon class="st3" points="178.84,66.71 182.46,66.71 169.81,44.86 170.24,44.86 174.29,44.86 157.86,16.73 172.22,44.09 
		168.95,44.43 180.13,65.42 177.21,65.5 180.83,71.48 181.75,71.48 178.33,66.71 	"/>
	<polygon class="st3" points="108.14,44.6 104.19,44.6 115.2,65.42 112.53,64.9 117.17,71.01 113.99,66.71 114.68,66.71 
		118.12,66.71 105.48,44.86 106.08,44.86 109.95,44.86 101,29.81 	"/>
	<polygon class="st3" points="139.19,44.86 126.55,66.71 129.99,66.71 130.68,66.71 127.5,71.01 132.14,64.9 129.47,65.42 
		140.48,44.6 136.53,44.6 143.67,29.81 134.72,44.86 138.59,44.86 	"/>
	<polygon class="st3" points="64.62,65.42 75.8,44.43 72.53,44.09 86.81,16.73 70.47,44.86 74.43,44.86 74.94,44.86 62.3,66.71 
		65.82,66.71 66.34,66.71 62.94,71.48 63.9,71.48 67.55,65.5 	"/>
	<polygon class="st3" points="161.73,13.29 159.35,9.89 161.62,13.29 	"/>
	<polygon class="st3" points="155.94,12.23 156.56,13.29 161.62,13.29 159.35,9.89 152.46,0 151,0 158.2,11.92 	"/>
	<polygon class="st3" points="148.31,13.29 152.29,13.29 152.63,12.69 	"/>
	<polygon class="st3" points="155.94,12.23 152.63,12.69 152.29,13.29 156.56,13.29 	"/>
	<polygon class="st3" points="96.53,13.29 92,12.63 92.39,13.29 	"/>
	<polygon class="st3" points="88.12,13.29 88.78,12.15 86.64,11.83 93.79,0 92.38,0 83.11,13.29 	"/>
	<polygon class="st3" points="92,12.63 88.78,12.15 88.12,13.29 92.39,13.29 	"/>
</g>
</svg>
